<svg width="41" height="45" viewBox="0 0 41 45" fill="none" xmlns="http://www.w3.org/2000/svg">
<path fill-rule="evenodd" clip-rule="evenodd" d="M3.18596 0.317642H26.0774C34.1248 0.317642 40.7041 6.896 40.7041 14.9423C40.7041 22.9885 34.1248 29.5669 26.0774 29.5669H10.744C4.9803 29.5669 0.249755 24.837 0.249755 19.0741V3.25344C0.249755 1.62244 1.55473 0.317642 3.18596 0.317642ZM12.8102 10.1036H26.0774C28.7418 10.1036 30.9711 12.2783 30.9711 14.9966C30.9711 17.6606 28.7961 19.8896 26.0774 19.8896H12.8102C11.2877 19.8896 10.0371 18.6392 10.0371 17.1169V12.9851C10.0371 11.4628 11.2877 10.2124 12.8102 10.2124V10.1036Z" fill="#F12236"/>
<path d="M6.06787 44.0828C9.3111 44.0828 11.9403 41.454 11.9403 38.2112C11.9403 34.9684 9.3111 32.3396 6.06787 32.3396C2.82463 32.3396 0.195465 34.9684 0.195465 38.2112C0.195465 41.454 2.82463 44.0828 6.06787 44.0828Z" fill="#C30D1C"/>
</svg>
